<svg xmlns="http://www.w3.org/2000/svg" xmlns:xlink="http://www.w3.org/1999/xlink" viewBox="0 0 200 77.1"><path fill="#B41A34" d="M72.9 5.9l44.3 10.7 5.2-10.7z"/><path fill="#A9182F" d="M102.3 5.9l5.3 8.4 9.6 2.3 5.2-10.7z"/><path fill="#D92438" d="M103.7 5.9l14.6 22.5 14.5-22.5z"/><defs><path id="a" d="M3 5.9h194.4v61.9H3z"/></defs><clipPath id="b"><use xlink:href="#a" overflow="visible"/></clipPath><path clip-path="url(#b)" fill="#363536" d="M17 23.4c-2.9 1.2-5.3 2.9-7.4 5-2.1 2.1-3.7 4.6-4.9 7.3-1.2 2.8-1.8 5.8-1.8 9v.1c0 3.3.6 6.4 1.7 9.2 1.1 2.8 2.8 5.2 4.8 7.3 2.1 2 4.5 3.6 7.4 4.8 2.9 1.1 6.1 1.7 9.5 1.7 4.1 0 7.7-.7 10.9-2.1 3.2-1.4 5.9-3.1 8.2-5V41.3H26.2v8.5h9.9v6.4c-2.5 1.8-5.6 2.7-9.3 2.7-2 0-3.8-.4-5.5-1.1s-3.1-1.7-4.3-3c-1.2-1.3-2.1-2.8-2.8-4.5-.7-1.7-1-3.6-1-5.7v-.1c0-1.9.3-3.7 1-5.4.7-1.7 1.6-3.2 2.7-4.4 1.2-1.3 2.5-2.3 4.1-3 1.6-.7 3.2-1.1 5-1.1 1.3 0 2.4.1 3.5.3 1.1.2 2.1.5 3 .9.9.4 1.8.9 2.7 1.4.9.6 1.7 1.2 2.6 1.9l6.2-7.5c-1.2-1-2.3-1.9-3.6-2.6-1.2-.8-2.6-1.4-4-1.9s-2.9-.9-4.6-1.2c-1.6-.3-3.5-.4-5.5-.4-3.3.1-6.4.7-9.3 1.9"/><defs><path id="c" d="M17.1 23.4c-2.9 1.2-5.3 2.9-7.4 5C7.6 30.5 6 33 4.8 35.7 4 37.4 3.5 39.2 3.3 41v7.6c.2 1.9.7 3.7 1.4 5.4 1.1 2.8 2.8 5.2 4.8 7.3 2.1 2 4.5 3.6 7.4 4.8 1.6.6 3.2 1.1 4.9 1.4h9.5c2.2-.3 4.2-.9 6-1.7 3.2-1.4 5.9-3.1 8.2-5V41.3H26.2v8.5h9.9v6.4c-2.5 1.8-5.6 2.7-9.3 2.7-2 0-3.8-.4-5.5-1.1-1.6-.7-3.1-1.7-4.3-3-1.2-1.3-2.2-2.8-2.8-4.5-.7-1.7-1-3.6-1-5.7v-.1c0-1.9.3-3.7 1-5.4.7-1.7 1.6-3.2 2.7-4.4 1.2-1.3 2.5-2.3 4.1-3 1.6-.7 3.2-1.1 5-1.1 1.3 0 2.4.1 3.5.3 1.1.2 2.1.5 3 .9.9.4 1.8.9 2.7 1.4.9.6 1.7 1.2 2.6 1.9l6.2-7.5c-1.2-1-2.3-1.9-3.6-2.6-1.2-.8-2.6-1.4-4-1.9s-2.9-.9-4.6-1.2c-1.6-.3-3.5-.4-5.5-.4-3.3.1-6.4.7-9.2 1.9"/></defs><clipPath id="d"><use xlink:href="#c" overflow="visible"/></clipPath><path clip-path="url(#d)" fill="#363536" d="M3 21.6h42.6v46.2H3z"/><defs><path id="e" d="M3 5.9h194.4v61.9H3z"/></defs><clipPath id="f"><use xlink:href="#e" overflow="visible"/></clipPath><path clip-path="url(#f)" fill="#363536" d="M63 22.7c-1.9.6-3.5 1.6-4.9 2.7-1.4 1.2-2.4 2.6-3.2 4.2-.8 1.6-1.1 3.5-1.1 5.5v.1c0 2.2.4 4.1 1.1 5.6.7 1.5 1.7 2.7 3 3.7s2.8 1.8 4.7 2.5c1.8.7 3.9 1.3 6.1 1.9 1.9.5 3.4.9 4.6 1.3 1.2.4 2.1.9 2.8 1.3.7.4 1.1.9 1.3 1.4.2.5.4 1.1.4 1.7v.1c0 1.3-.6 2.4-1.7 3.1-1.1.7-2.7 1.1-4.8 1.1-2.6 0-4.9-.5-7.1-1.5-2.1-1-4.2-2.3-6.3-4l-5.8 7c2.7 2.4 5.7 4.2 8.9 5.4 3.3 1.2 6.6 1.8 10 1.8 2.4 0 4.6-.3 6.6-.9 2-.6 3.7-1.5 5.1-2.7 1.4-1.2 2.6-2.6 3.4-4.3.8-1.7 1.2-3.7 1.2-5.9v-.1c0-2-.3-3.6-.9-5-.6-1.4-1.5-2.6-2.8-3.7-1.2-1-2.7-1.9-4.5-2.7-1.8-.7-3.8-1.4-6.1-2-1.9-.5-3.5-1-4.8-1.3-1.3-.4-2.3-.8-3-1.2-.7-.4-1.2-.9-1.5-1.4-.3-.5-.4-1.2-.4-1.9v-.1c0-1.1.5-2 1.4-2.8 1-.7 2.4-1.1 4.3-1.1s3.8.4 5.7 1.2c1.9.8 3.9 1.9 5.9 3.2l5.1-7.4c-2.3-1.8-4.8-3.2-7.6-4.2-2.7-1-5.8-1.5-9-1.5-2-.1-4.2.2-6.1.9"/><defs><path id="g" d="M63 22.7c-1.9.6-3.6 1.6-4.9 2.7-1.4 1.2-2.4 2.6-3.2 4.2-.8 1.6-1.1 3.5-1.1 5.5v.1c0 2.2.4 4.1 1.1 5.6.7 1.5 1.7 2.7 3 3.7s2.8 1.8 4.7 2.5c1.8.7 3.9 1.3 6.1 1.9 1.9.5 3.4.9 4.6 1.3 1.2.4 2.1.9 2.8 1.3.7.4 1.1.9 1.3 1.4.2.5.4 1.1.4 1.7v.1c0 1.3-.6 2.4-1.7 3.1-1.1.7-2.7 1.1-4.8 1.1-2.6 0-4.9-.5-7.1-1.5-2.1-1-4.2-2.3-6.3-4l-5.8 7c2.7 2.4 5.7 4.2 8.9 5.4 2.1.7 4.2 1.2 6.3 1.5h7.2c1.1-.2 2.1-.4 3.1-.7 2-.6 3.7-1.5 5.1-2.7 1.4-1.2 2.6-2.6 3.4-4.3.8-1.7 1.2-3.7 1.2-5.9v-.1c0-2-.3-3.6-.9-5-.6-1.4-1.5-2.6-2.8-3.7-1.2-1-2.7-1.9-4.5-2.7-1.8-.7-3.8-1.4-6.1-2-1.9-.5-3.5-1-4.8-1.3-1.3-.4-2.3-.8-3-1.2-.7-.4-1.2-.9-1.5-1.4-.3-.5-.4-1.2-.4-1.9v-.1c0-1.1.5-2 1.4-2.8 1-.7 2.4-1.1 4.3-1.1s3.8.4 5.7 1.2c1.9.8 3.9 1.9 5.9 3.2l5.1-7.4c-2.3-1.8-4.8-3.2-7.6-4.2-2.7-1-5.8-1.5-9-1.5-2 0-4.2.3-6.1 1"/></defs><clipPath id="h"><use xlink:href="#g" overflow="visible"/></clipPath><path clip-path="url(#h)" fill="#363536" d="M52 21.7h35.3v46H52z"/><path fill="#363536" d="M130 22.3l-11.7 18.9-11.8-18.9H95.9V67h9.7V38.1L118.1 57h.2l12.6-19.1V67h9.7V22.3z"/><path fill="#363536" d="M130 22.3l-11.7 18.9-11.8-18.9H95.9V67h9.7V38.1L118.1 57h.2l12.6-19.1V67h9.7V22.3z"/><path fill="#D92438" d="M149.2 50.3V67H161v-2.6h-8.8V50.3z"/><defs><path id="i" d="M3 5.9h194.4v61.9H3z"/></defs><clipPath id="j"><use xlink:href="#i" overflow="visible"/></clipPath><path clip-path="url(#j)" fill="#D92438" d="M176.3 58.7c0-3.3-2.4-6-5.7-6-3.3 0-5.6 2.7-5.6 5.9 0 3.3 2.4 6 5.7 6 3.2 0 5.6-2.6 5.6-5.9m-14.5 0c0-4.8 3.6-8.7 8.8-8.7 5.1 0 8.7 3.9 8.7 8.6 0 4.7-3.6 8.7-8.8 8.7-5.1 0-8.7-3.9-8.7-8.6m19.9 0c0-4.7 3.6-8.7 8.6-8.7 2.9 0 4.7.8 6.4 2.3l-1.9 2.2c-1.3-1.1-2.6-1.8-4.7-1.8-3.1 0-5.4 2.7-5.4 5.9 0 3.4 2.3 6 5.7 6 1.6 0 3-.5 4-1.3v-3.1h-4.3v-2.6h7.1v7c-1.7 1.4-4 2.6-7 2.6-5.1.1-8.5-3.6-8.5-8.5"/></svg>